<?xml version="1.0" encoding="utf-8"?>
<!-- Generator: Adobe Illustrator 23.0.1, SVG Export Plug-In . SVG Version: 6.00 Build 0)  -->
<svg version="1.1" xmlns="http://www.w3.org/2000/svg" xmlns:xlink="http://www.w3.org/1999/xlink" x="0px" y="0px"
	 viewBox="0 0 50 50" style="enable-background:new 0 0 50 50;" xml:space="preserve">
<style type="text/css">
	.st0{fill:#6a6cf6;}
	.st1{fill:#FFFFFF;}
	.st2{fill:#AF5D71;}
	.st3{fill:none;stroke:#151A3B;stroke-width:3.5034;stroke-miterlimit:10;}
	.st4{fill:#CC923E;}
	.st5{fill:#FFFFFF;stroke:#151A3B;stroke-width:3.5034;stroke-miterlimit:10;}
	.st6{fill:#C98A89;}
	.st7{fill:none;stroke:#151A3B;stroke-width:3.5034;stroke-linecap:round;stroke-miterlimit:10;}
	.st8{fill:none;stroke:#151A3B;stroke-width:3.5034;stroke-linecap:round;stroke-miterlimit:10;stroke-dasharray:11.6654,11.6654;}
	.st9{fill:none;}
	.st10{fill:#151A3B;}
	.st11{opacity:0.8;}
	.st12{fill:#151A3B;stroke:#121A3A;stroke-width:0.4379;stroke-miterlimit:10;}
	.st13{fill:#E7E9EA;}
	.st14{fill:#C2401F;}
	.st15{fill:#AF3C23;}
	.st16{fill-rule:evenodd;clip-rule:evenodd;fill:#BBC0C5;}
	.st17{fill-rule:evenodd;clip-rule:evenodd;fill:#FFFFFF;}
	.st18{fill:#060001;}
	.st19{fill-rule:evenodd;clip-rule:evenodd;fill:#060001;}
	.st20{fill-rule:evenodd;clip-rule:evenodd;fill:#F5F1C9;}
	.st21{fill-rule:evenodd;clip-rule:evenodd;fill:#313333;}
	.st22{fill:#9CA5A4;}
	.st23{fill-rule:evenodd;clip-rule:evenodd;fill:#D7DADD;}
	.st24{fill-rule:evenodd;clip-rule:evenodd;fill:#9CA5A4;}
	.st25{fill-rule:evenodd;clip-rule:evenodd;fill:#C8CBCE;stroke:#3C3A39;stroke-width:2;stroke-miterlimit:10;}
	.st26{fill:#ECEEF4;stroke:#585757;stroke-width:3;stroke-miterlimit:10;}
	.st27{fill-rule:evenodd;clip-rule:evenodd;fill:#DA4A46;}
	.st28{fill-rule:evenodd;clip-rule:evenodd;fill:#DEB829;}
	.st29{fill-rule:evenodd;clip-rule:evenodd;fill:#9EC768;}
	.st30{fill-rule:evenodd;clip-rule:evenodd;fill:#74B86E;}
	.st31{fill-rule:evenodd;clip-rule:evenodd;fill:#62B05A;}
	.st32{fill:#707070;}
	.st33{fill:#246EA1;}
	.st34{fill:#123651;}
	.st35{fill:#EA6D5D;}
	.st36{fill:#FBDFC1;}
	.st37{fill:#EBEAEA;}
	.st38{opacity:0.62;fill:url(#SVGID_1_);}
	.st39{opacity:0.62;fill:url(#SVGID_2_);}
	.st40{opacity:0.62;fill:url(#SVGID_3_);}
	.st41{fill:url(#SVGID_4_);}
	.st42{fill:url(#SVGID_5_);}
	.st43{opacity:0.62;fill:url(#SVGID_6_);}
	.st44{fill:url(#SVGID_7_);}
	.st45{fill:#D7D8DC;}
	.st46{fill:#C6C6C5;}
	.st47{fill:#AEADB3;}
	.st48{fill:url(#SVGID_8_);}
	.st49{fill:url(#SVGID_9_);}
	.st50{fill:url(#SVGID_10_);}
	.st51{fill:url(#SVGID_11_);}
	.st52{fill:#E08658;}
	.st53{fill:#D17847;}
	.st54{fill:#EAE081;}
	.st55{fill:#57AADC;}
	.st56{clip-path:url(#SVGID_13_);}
	.st57{clip-path:url(#SVGID_15_);}
	.st58{clip-path:url(#SVGID_17_);}
	.st59{clip-path:url(#SVGID_19_);}
	.st60{opacity:0.82;}
	.st61{clip-path:url(#SVGID_21_);fill:#00B4E4;}
	.st62{clip-path:url(#SVGID_21_);fill:#00B8E3;}
	.st63{clip-path:url(#SVGID_21_);fill:#00D0E3;}
	.st64{clip-path:url(#SVGID_21_);fill:#00E4E2;}
	.st65{fill:#C6C6C6;}
	.st66{fill:#515151;}
	.st67{fill:#FBDFC1;stroke:#EBC7A5;stroke-width:1.141;stroke-linecap:round;stroke-linejoin:round;stroke-miterlimit:10;}
	.st68{fill:#F7F7F7;}
	.st69{fill:#B2B2B2;}
	.st70{opacity:0.62;fill-rule:evenodd;clip-rule:evenodd;fill:url(#SVGID_22_);}
	.st71{opacity:0.62;fill-rule:evenodd;clip-rule:evenodd;fill:url(#SVGID_23_);}
	.st72{opacity:0.62;fill-rule:evenodd;clip-rule:evenodd;fill:url(#SVGID_24_);}
	.st73{opacity:0.62;fill-rule:evenodd;clip-rule:evenodd;fill:url(#SVGID_25_);}
	.st74{fill:url(#SVGID_26_);}
	.st75{fill:#1874BA;stroke:#1C6EAE;stroke-width:1.1732;stroke-linecap:round;stroke-linejoin:round;stroke-miterlimit:10;}
	.st76{fill:#EBC7A5;}
	.st77{fill:#D1D1D1;}
	.st78{fill:#1A567A;}
	.st79{fill:#EFEFEF;}
	.st80{fill-rule:evenodd;clip-rule:evenodd;fill:#1A567A;}
	.st81{fill-rule:evenodd;clip-rule:evenodd;fill:#EFEFEF;}
	.st82{fill-rule:evenodd;clip-rule:evenodd;fill:#347FA5;}
	.st83{fill:#FBDFC1;stroke:#EBC7A5;stroke-width:1.1732;stroke-miterlimit:10;}
	.st84{fill:#E2E2E2;}
	.st85{fill:#FBDFC1;stroke:#EBC7A5;stroke-width:1.1732;stroke-linecap:round;stroke-linejoin:round;stroke-miterlimit:10;}
	.st86{fill:#E25959;}
	.st87{fill:#E89791;}
	.st88{opacity:0.62;fill-rule:evenodd;clip-rule:evenodd;fill:url(#SVGID_27_);}
	.st89{opacity:0.62;fill-rule:evenodd;clip-rule:evenodd;fill:url(#SVGID_28_);}
	.st90{opacity:0.62;fill-rule:evenodd;clip-rule:evenodd;fill:url(#SVGID_29_);}
	.st91{opacity:0.52;}
	.st92{fill:#F7F7F7;stroke:#B2B2B2;stroke-width:1.141;stroke-linecap:round;stroke-linejoin:round;stroke-miterlimit:10;}
	.st93{fill:#7A7A7A;}
	.st94{fill:#FFE292;}
	.st95{fill:#A5A5A5;}
	.st96{fill:#999999;}
	.st97{fill:#E5E5E5;}
	.st98{fill:none;stroke:url(#SVGID_30_);stroke-width:3;stroke-linecap:round;stroke-linejoin:round;stroke-miterlimit:10;}
	.st99{fill:none;stroke:url(#SVGID_31_);stroke-width:3;stroke-linecap:round;stroke-linejoin:round;stroke-miterlimit:10;}
	.st100{fill:none;stroke:url(#SVGID_32_);stroke-width:3;stroke-linecap:round;stroke-linejoin:round;stroke-miterlimit:10;}
	.st101{fill:none;stroke:url(#SVGID_33_);stroke-width:3;stroke-linecap:round;stroke-linejoin:round;stroke-miterlimit:10;}
	.st102{opacity:0.62;}
	.st103{fill:url(#SVGID_34_);}
	.st104{fill:url(#SVGID_35_);}
	.st105{fill:url(#SVGID_36_);}
	.st106{fill:url(#SVGID_37_);}
	.st107{fill:url(#SVGID_38_);}
	.st108{fill:url(#SVGID_39_);}
	.st109{fill:url(#SVGID_40_);}
	.st110{fill:url(#SVGID_41_);}
	.st111{fill:url(#SVGID_42_);}
	.st112{fill:url(#SVGID_43_);}
	.st113{fill:url(#SVGID_44_);}
	.st114{fill:url(#SVGID_45_);}
	.st115{fill:url(#SVGID_46_);}
	.st116{fill:url(#SVGID_47_);}
	.st117{fill:url(#SVGID_48_);}
	.st118{fill:url(#SVGID_49_);}
	.st119{fill:url(#SVGID_50_);}
	.st120{fill:url(#SVGID_51_);}
	.st121{fill:#C7C7C7;}
	.st122{fill:#915EAB;stroke:#FFFFFF;stroke-width:0.75;stroke-linecap:round;stroke-linejoin:round;stroke-miterlimit:10;}
	.st123{fill:#FFFFFF;stroke:#FFFFFF;stroke-width:2.2328;stroke-miterlimit:10;}
</style>
<g id="圖層_1">
</g>
<g id="bg">
</g>
<g id="圖層_2">
	<path class="st0" d="M14.9,23.6c-4.8,0-8.7-3.9-8.7-8.7s3.9-8.7,8.7-8.7c4.8,0,8.7,3.9,8.7,8.7S19.7,23.6,14.9,23.6z M25.3,17.4
		l4.5-2.5l-4.5-2.5V17.4z M4.5,12.4L0,14.9l4.5,2.5V12.4z M14.9,29.8l2.5-4.5h-5L14.9,29.8z M14.9,0l-2.5,4.5h5L14.9,0z M5.8,20.5
		l-1.4,4.9L9.3,24L5.8,20.5z M20.5,5.8L24,9.3l1.4-4.9L20.5,5.8z M4.4,4.4l1.4,4.9l3.5-3.5L4.4,4.4z M20.5,24l4.9,1.4L24,20.5
		L20.5,24z"/>
	<polygon class="st0" points="37.3,14.7 25,39.9 49.6,39.9 	"/>
	<polygon class="st0" points="22.3,25.9 15.5,39.9 29.2,39.9 	"/>
	<g>
		<g>
			<g>
				<g>
					<path class="st0" d="M27.3,47.7c-1,0-1.9-0.4-2.6-1c-0.2-0.2-0.4-0.3-0.7-0.3s-0.5,0.1-0.7,0.3c-0.7,0.6-1.6,1-2.6,1
						c-1,0-1.9-0.4-2.6-1c-0.2-0.2-0.4-0.3-0.7-0.3s-0.5,0.1-0.7,0.3c-0.7,0.6-1.6,1-2.6,1s-1.9-0.4-2.6-1c-0.2-0.2-0.4-0.3-0.7-0.3
						c-0.3,0-0.5,0.1-0.7,0.3c-0.7,0.6-1.6,1-2.6,1s-1.9-0.4-2.6-1c-0.2-0.2-0.4-0.3-0.7-0.3c-0.3,0-0.5,0.1-0.7,0.3
						c-0.7,0.6-1.6,1-2.6,1c-0.5,0-0.9,0.3-0.9,0.8s0.4,0.8,0.9,0.8c1.1,0,2.1-0.3,3-0.8c0.1-0.1,0.2-0.1,0.3-0.2
						c0.1,0.1,0.2,0.1,0.3,0.2c0.9,0.5,1.9,0.8,3,0.8s2.1-0.3,3-0.8c0.1-0.1,0.2-0.1,0.3-0.2c0.1,0.1,0.2,0.1,0.3,0.2
						c0.9,0.5,1.9,0.8,3,0.8s2.1-0.3,3-0.8c0.1-0.1,0.2-0.1,0.3-0.2c0.1,0.1,0.2,0.1,0.3,0.2c0.9,0.5,1.9,0.8,3,0.8s2.1-0.3,3-0.8
						c0.1-0.1,0.2-0.1,0.3-0.2c0.1,0.1,0.2,0.1,0.3,0.2c0.9,0.5,1.9,0.8,3,0.8c0.5,0,0.9-0.3,0.9-0.8S27.8,47.7,27.3,47.7z"/>
					<path class="st0" d="M27.3,43.6c-1,0-1.9-0.4-2.6-1c-0.2-0.2-0.4-0.3-0.7-0.3s-0.5,0.1-0.7,0.3c-0.7,0.6-1.6,1-2.6,1
						c-1,0-1.9-0.4-2.6-1c-0.2-0.2-0.4-0.3-0.7-0.3s-0.5,0.1-0.7,0.3c-0.7,0.6-1.6,1-2.6,1s-1.9-0.4-2.6-1c-0.2-0.2-0.4-0.3-0.7-0.3
						c-0.3,0-0.5,0.1-0.7,0.3c-0.7,0.6-1.6,1-2.6,1s-1.9-0.4-2.6-1c-0.2-0.2-0.4-0.3-0.7-0.3c-0.3,0-0.5,0.1-0.7,0.3
						c-0.7,0.6-1.6,1-2.6,1C0.4,43.6,0,44,0,44.4c0,0.4,0.4,0.8,0.9,0.8c1.1,0,2.1-0.3,3-0.8c0.1-0.1,0.2-0.1,0.3-0.2
						c0.1,0.1,0.2,0.1,0.3,0.2c0.9,0.5,1.9,0.8,3,0.8s2.1-0.3,3-0.8c0.1-0.1,0.2-0.1,0.3-0.2c0.1,0.1,0.2,0.1,0.3,0.2
						c0.9,0.5,1.9,0.8,3,0.8s2.1-0.3,3-0.8c0.1-0.1,0.2-0.1,0.3-0.2c0.1,0.1,0.2,0.1,0.3,0.2c0.9,0.5,1.9,0.8,3,0.8s2.1-0.3,3-0.8
						c0.1-0.1,0.2-0.1,0.3-0.2c0.1,0.1,0.2,0.1,0.3,0.2c0.9,0.5,1.9,0.8,3,0.8c0.5,0,0.9-0.3,0.9-0.8C28.3,44,27.8,43.6,27.3,43.6z"
						/>
					<path class="st0" d="M0.9,41.1c1.1,0,2.1-0.3,3-0.8c0.1-0.1,0.2-0.1,0.3-0.2c0.1,0.1,0.2,0.1,0.3,0.2c0.9,0.5,1.9,0.8,3,0.8
						s2.1-0.3,3-0.8c0.1-0.1,0.2-0.1,0.3-0.2c0.1,0.1,0.2,0.1,0.3,0.2c0.9,0.5,1.9,0.8,3,0.8s2.1-0.3,3-0.8c0.1-0.1,0.2-0.1,0.3-0.2
						c0.1,0.1,0.2,0.1,0.3,0.2c0.9,0.5,1.9,0.8,3,0.8s2.1-0.3,3-0.8c0.1-0.1,0.2-0.1,0.3-0.2c0.1,0.1,0.2,0.1,0.3,0.2
						c0.9,0.5,1.9,0.8,3,0.8c0.5,0,0.9-0.3,0.9-0.8c0-0.4-0.4-0.8-0.9-0.8c-1,0-1.9-0.4-2.6-1c-0.2-0.2-0.4-0.3-0.7-0.3
						c-0.3,0-0.5,0.1-0.7,0.3c-0.7,0.6-1.6,1-2.6,1s-1.9-0.4-2.6-1c-0.2-0.2-0.4-0.3-0.7-0.3c-0.3,0-0.5,0.1-0.7,0.3
						c-0.7,0.6-1.6,1-2.6,1s-1.9-0.4-2.6-1c-0.2-0.2-0.4-0.3-0.7-0.3c-0.3,0-0.5,0.1-0.7,0.3c-0.7,0.6-1.6,1-2.6,1s-1.9-0.4-2.6-1
						c-0.2-0.2-0.4-0.3-0.7-0.3s-0.5,0.1-0.7,0.3c-0.7,0.6-1.6,1-2.6,1c-0.5,0-0.9,0.3-0.9,0.8C0,40.7,0.4,41.1,0.9,41.1z"/>
				</g>
			</g>
		</g>
	</g>
	<g>
		<g>
			<g>
				<g>
					<path class="st0" d="M53.5,47.7c-1,0-1.9-0.4-2.6-1c-0.2-0.2-0.4-0.3-0.7-0.3s-0.5,0.1-0.7,0.3c-0.7,0.6-1.6,1-2.6,1
						c-1,0-1.9-0.4-2.6-1c-0.2-0.2-0.4-0.3-0.7-0.3s-0.5,0.1-0.7,0.3c-0.7,0.6-1.6,1-2.6,1c-1,0-1.9-0.4-2.6-1
						c-0.2-0.2-0.4-0.3-0.7-0.3c-0.3,0-0.5,0.1-0.7,0.3c-0.7,0.6-1.6,1-2.6,1c-1,0-1.9-0.4-2.6-1c-0.2-0.2-0.4-0.3-0.7-0.3
						c-0.3,0-0.5,0.1-0.7,0.3c-0.7,0.6-1.6,1-2.6,1c-0.5,0-0.9,0.3-0.9,0.8s0.4,0.8,0.9,0.8c1.1,0,2.1-0.3,3-0.8
						c0.1-0.1,0.2-0.1,0.3-0.2c0.1,0.1,0.2,0.1,0.3,0.2c0.9,0.5,1.9,0.8,3,0.8c1.1,0,2.1-0.3,3-0.8c0.1-0.1,0.2-0.1,0.3-0.2
						c0.1,0.1,0.2,0.1,0.3,0.2c0.9,0.5,1.9,0.8,3,0.8s2.1-0.3,3-0.8c0.1-0.1,0.2-0.1,0.3-0.2c0.1,0.1,0.2,0.1,0.3,0.2
						c0.9,0.5,1.9,0.8,3,0.8c1.1,0,2.1-0.3,3-0.8c0.1-0.1,0.2-0.1,0.3-0.2c0.1,0.1,0.2,0.1,0.3,0.2c0.9,0.5,1.9,0.8,3,0.8
						c0.5,0,0.9-0.3,0.9-0.8S54,47.7,53.5,47.7z"/>
					<path class="st0" d="M53.5,43.6c-1,0-1.9-0.4-2.6-1c-0.2-0.2-0.4-0.3-0.7-0.3s-0.5,0.1-0.7,0.3c-0.7,0.6-1.6,1-2.6,1
						c-1,0-1.9-0.4-2.6-1c-0.2-0.2-0.4-0.3-0.7-0.3s-0.5,0.1-0.7,0.3c-0.7,0.6-1.6,1-2.6,1c-1,0-1.9-0.4-2.6-1
						c-0.2-0.2-0.4-0.3-0.7-0.3c-0.3,0-0.5,0.1-0.7,0.3c-0.7,0.6-1.6,1-2.6,1c-1,0-1.9-0.4-2.6-1c-0.2-0.2-0.4-0.3-0.7-0.3
						c-0.3,0-0.5,0.1-0.7,0.3c-0.7,0.6-1.6,1-2.6,1c-0.5,0-0.9,0.3-0.9,0.8c0,0.4,0.4,0.8,0.9,0.8c1.1,0,2.1-0.3,3-0.8
						c0.1-0.1,0.2-0.1,0.3-0.2c0.1,0.1,0.2,0.1,0.3,0.2c0.9,0.5,1.9,0.8,3,0.8c1.1,0,2.1-0.3,3-0.8c0.1-0.1,0.2-0.1,0.3-0.2
						c0.1,0.1,0.2,0.1,0.3,0.2c0.9,0.5,1.9,0.8,3,0.8s2.1-0.3,3-0.8c0.1-0.1,0.2-0.1,0.3-0.2c0.1,0.1,0.2,0.1,0.3,0.2
						c0.9,0.5,1.9,0.8,3,0.8c1.1,0,2.1-0.3,3-0.8c0.1-0.1,0.2-0.1,0.3-0.2c0.1,0.1,0.2,0.1,0.3,0.2c0.9,0.5,1.9,0.8,3,0.8
						c0.5,0,0.9-0.3,0.9-0.8C54.4,44,54,43.6,53.5,43.6z"/>
					<path class="st0" d="M27.1,41.1c1.1,0,2.1-0.3,3-0.8c0.1-0.1,0.2-0.1,0.3-0.2c0.1,0.1,0.2,0.1,0.3,0.2c0.9,0.5,1.9,0.8,3,0.8
						c1.1,0,2.1-0.3,3-0.8c0.1-0.1,0.2-0.1,0.3-0.2c0.1,0.1,0.2,0.1,0.3,0.2c0.9,0.5,1.9,0.8,3,0.8s2.1-0.3,3-0.8
						c0.1-0.1,0.2-0.1,0.3-0.2c0.1,0.1,0.2,0.1,0.3,0.2c0.9,0.5,1.9,0.8,3,0.8c1.1,0,2.1-0.3,3-0.8c0.1-0.1,0.2-0.1,0.3-0.2
						c0.1,0.1,0.2,0.1,0.3,0.2c0.9,0.5,1.9,0.8,3,0.8c0.5,0,0.9-0.3,0.9-0.8c0-0.4-0.4-0.8-0.9-0.8c-1,0-1.9-0.4-2.6-1
						c-0.2-0.2-0.4-0.3-0.7-0.3c-0.3,0-0.5,0.1-0.7,0.3c-0.7,0.6-1.6,1-2.6,1c-1,0-1.9-0.4-2.6-1c-0.2-0.2-0.4-0.3-0.7-0.3
						s-0.5,0.1-0.7,0.3c-0.7,0.6-1.6,1-2.6,1c-1,0-1.9-0.4-2.6-1c-0.2-0.2-0.4-0.3-0.7-0.3c-0.3,0-0.5,0.1-0.7,0.3
						c-0.7,0.6-1.6,1-2.6,1c-1,0-1.9-0.4-2.6-1c-0.2-0.2-0.4-0.3-0.7-0.3s-0.5,0.1-0.7,0.3c-0.7,0.6-1.6,1-2.6,1
						c-0.5,0-0.9,0.3-0.9,0.8C26.2,40.7,26.6,41.1,27.1,41.1z"/>
				</g>
			</g>
		</g>
	</g>
</g>
</svg>
