<?xml version="1.0" encoding="utf-8"?>
<!-- Generator: Adobe Illustrator 23.0.1, SVG Export Plug-In . SVG Version: 6.00 Build 0)  -->
<svg version="1.1" xmlns="http://www.w3.org/2000/svg" xmlns:xlink="http://www.w3.org/1999/xlink" x="0px" y="0px"
	 viewBox="0 0 50 50" style="enable-background:new 0 0 50 50;" xml:space="preserve">
<style type="text/css">
	.st0{fill:#6a6cf6;}
	.st1{fill:#FFFFFF;}
	.st2{fill:#AF5D71;}
	.st3{fill:none;stroke:#151A3B;stroke-width:3.5034;stroke-miterlimit:10;}
	.st4{fill:#CC923E;}
	.st5{fill:#FFFFFF;stroke:#151A3B;stroke-width:3.5034;stroke-miterlimit:10;}
	.st6{fill:#C98A89;}
	.st7{fill:none;stroke:#151A3B;stroke-width:3.5034;stroke-linecap:round;stroke-miterlimit:10;}
	.st8{fill:none;stroke:#151A3B;stroke-width:3.5034;stroke-linecap:round;stroke-miterlimit:10;stroke-dasharray:11.6654,11.6654;}
	.st9{fill:none;}
	.st10{fill:#151A3B;}
	.st11{opacity:0.8;}
	.st12{fill:#151A3B;stroke:#121A3A;stroke-width:0.4379;stroke-miterlimit:10;}
	.st13{fill:#E7E9EA;}
	.st14{fill:#C2401F;}
	.st15{fill:#AF3C23;}
	.st16{fill-rule:evenodd;clip-rule:evenodd;fill:#BBC0C5;}
	.st17{fill-rule:evenodd;clip-rule:evenodd;fill:#FFFFFF;}
	.st18{fill:#060001;}
	.st19{fill-rule:evenodd;clip-rule:evenodd;fill:#060001;}
	.st20{fill-rule:evenodd;clip-rule:evenodd;fill:#F5F1C9;}
	.st21{fill-rule:evenodd;clip-rule:evenodd;fill:#313333;}
	.st22{fill:#9CA5A4;}
	.st23{fill-rule:evenodd;clip-rule:evenodd;fill:#D7DADD;}
	.st24{fill-rule:evenodd;clip-rule:evenodd;fill:#9CA5A4;}
	.st25{fill-rule:evenodd;clip-rule:evenodd;fill:#C8CBCE;stroke:#3C3A39;stroke-width:2;stroke-miterlimit:10;}
	.st26{fill:#ECEEF4;stroke:#585757;stroke-width:3;stroke-miterlimit:10;}
	.st27{fill-rule:evenodd;clip-rule:evenodd;fill:#DA4A46;}
	.st28{fill-rule:evenodd;clip-rule:evenodd;fill:#DEB829;}
	.st29{fill-rule:evenodd;clip-rule:evenodd;fill:#9EC768;}
	.st30{fill-rule:evenodd;clip-rule:evenodd;fill:#74B86E;}
	.st31{fill-rule:evenodd;clip-rule:evenodd;fill:#62B05A;}
	.st32{fill:#707070;}
	.st33{fill:#246EA1;}
	.st34{fill:#123651;}
	.st35{fill:#EA6D5D;}
	.st36{fill:#FBDFC1;}
	.st37{fill:#EBEAEA;}
	.st38{opacity:0.62;fill:url(#SVGID_1_);}
	.st39{opacity:0.62;fill:url(#SVGID_2_);}
	.st40{opacity:0.62;fill:url(#SVGID_3_);}
	.st41{fill:url(#SVGID_4_);}
	.st42{fill:url(#SVGID_5_);}
	.st43{opacity:0.62;fill:url(#SVGID_6_);}
	.st44{fill:url(#SVGID_7_);}
	.st45{fill:#D7D8DC;}
	.st46{fill:#C6C6C5;}
	.st47{fill:#AEADB3;}
	.st48{fill:url(#SVGID_8_);}
	.st49{fill:url(#SVGID_9_);}
	.st50{fill:url(#SVGID_10_);}
	.st51{fill:url(#SVGID_11_);}
	.st52{fill:#E08658;}
	.st53{fill:#D17847;}
	.st54{fill:#EAE081;}
	.st55{fill:#57AADC;}
	.st56{clip-path:url(#SVGID_13_);}
	.st57{clip-path:url(#SVGID_15_);}
	.st58{clip-path:url(#SVGID_17_);}
	.st59{clip-path:url(#SVGID_19_);}
	.st60{opacity:0.82;}
	.st61{clip-path:url(#SVGID_21_);fill:#00B4E4;}
	.st62{clip-path:url(#SVGID_21_);fill:#00B8E3;}
	.st63{clip-path:url(#SVGID_21_);fill:#00D0E3;}
	.st64{clip-path:url(#SVGID_21_);fill:#00E4E2;}
	.st65{fill:#C6C6C6;}
	.st66{fill:#515151;}
	.st67{fill:#FBDFC1;stroke:#EBC7A5;stroke-width:1.141;stroke-linecap:round;stroke-linejoin:round;stroke-miterlimit:10;}
	.st68{fill:#F7F7F7;}
	.st69{fill:#B2B2B2;}
	.st70{opacity:0.62;fill-rule:evenodd;clip-rule:evenodd;fill:url(#SVGID_22_);}
	.st71{opacity:0.62;fill-rule:evenodd;clip-rule:evenodd;fill:url(#SVGID_23_);}
	.st72{opacity:0.62;fill-rule:evenodd;clip-rule:evenodd;fill:url(#SVGID_24_);}
	.st73{opacity:0.62;fill-rule:evenodd;clip-rule:evenodd;fill:url(#SVGID_25_);}
	.st74{fill:url(#SVGID_26_);}
	.st75{fill:#1874BA;stroke:#1C6EAE;stroke-width:1.1732;stroke-linecap:round;stroke-linejoin:round;stroke-miterlimit:10;}
	.st76{fill:#EBC7A5;}
	.st77{fill:#D1D1D1;}
	.st78{fill:#1A567A;}
	.st79{fill:#EFEFEF;}
	.st80{fill-rule:evenodd;clip-rule:evenodd;fill:#1A567A;}
	.st81{fill-rule:evenodd;clip-rule:evenodd;fill:#EFEFEF;}
	.st82{fill-rule:evenodd;clip-rule:evenodd;fill:#347FA5;}
	.st83{fill:#FBDFC1;stroke:#EBC7A5;stroke-width:1.1732;stroke-miterlimit:10;}
	.st84{fill:#E2E2E2;}
	.st85{fill:#FBDFC1;stroke:#EBC7A5;stroke-width:1.1732;stroke-linecap:round;stroke-linejoin:round;stroke-miterlimit:10;}
	.st86{fill:#E25959;}
	.st87{fill:#E89791;}
	.st88{opacity:0.62;fill-rule:evenodd;clip-rule:evenodd;fill:url(#SVGID_27_);}
	.st89{opacity:0.62;fill-rule:evenodd;clip-rule:evenodd;fill:url(#SVGID_28_);}
	.st90{opacity:0.62;fill-rule:evenodd;clip-rule:evenodd;fill:url(#SVGID_29_);}
	.st91{opacity:0.52;}
	.st92{fill:#F7F7F7;stroke:#B2B2B2;stroke-width:1.141;stroke-linecap:round;stroke-linejoin:round;stroke-miterlimit:10;}
	.st93{fill:#7A7A7A;}
	.st94{fill:#FFE292;}
	.st95{fill:#A5A5A5;}
	.st96{fill:#999999;}
	.st97{fill:#E5E5E5;}
	.st98{fill:none;stroke:url(#SVGID_30_);stroke-width:3;stroke-linecap:round;stroke-linejoin:round;stroke-miterlimit:10;}
	.st99{fill:none;stroke:url(#SVGID_31_);stroke-width:3;stroke-linecap:round;stroke-linejoin:round;stroke-miterlimit:10;}
	.st100{fill:none;stroke:url(#SVGID_32_);stroke-width:3;stroke-linecap:round;stroke-linejoin:round;stroke-miterlimit:10;}
	.st101{fill:none;stroke:url(#SVGID_33_);stroke-width:3;stroke-linecap:round;stroke-linejoin:round;stroke-miterlimit:10;}
	.st102{opacity:0.62;}
	.st103{fill:url(#SVGID_34_);}
	.st104{fill:url(#SVGID_35_);}
	.st105{fill:url(#SVGID_36_);}
	.st106{fill:url(#SVGID_37_);}
	.st107{fill:url(#SVGID_38_);}
	.st108{fill:url(#SVGID_39_);}
	.st109{fill:url(#SVGID_40_);}
	.st110{fill:url(#SVGID_41_);}
	.st111{fill:url(#SVGID_42_);}
	.st112{fill:url(#SVGID_43_);}
	.st113{fill:url(#SVGID_44_);}
	.st114{fill:url(#SVGID_45_);}
	.st115{fill:url(#SVGID_46_);}
	.st116{fill:url(#SVGID_47_);}
	.st117{fill:url(#SVGID_48_);}
	.st118{fill:url(#SVGID_49_);}
	.st119{fill:url(#SVGID_50_);}
	.st120{fill:url(#SVGID_51_);}
	.st121{fill:#C7C7C7;}
	.st122{fill:#6a6cf6;stroke:#FFFFFF;stroke-width:0.75;stroke-linecap:round;stroke-linejoin:round;stroke-miterlimit:10;}
	.st123{fill:#FFFFFF;stroke:#FFFFFF;stroke-width:2.2328;stroke-miterlimit:10;}
</style>
<g id="圖層_1">
</g>
<g id="bg">
</g>
<g id="圖層_2">
	<path class="st0" d="M34.4,3.3l-1.4-1.8c0,0-1.3,0-1.5,0c-0.2,0-0.8,0.7-0.9,0.9c-0.1,0.2-0.3,1.1-0.8,1.4c-0.5,0.2-4,0.9-5,2.4
		c-1,1.5-0.8,1.7-2.1,3.2c-1.3,1.5-1.8,1.8-2.4,3.3s-7.3,12.2-7.2,15.6c0.1,3.2-0.6,4.1-0.6,4.1s0.7,0.6,1.7,2.6
		c1.1,1.9,0.6,5,1.1,5.5c0.5,0.6,3.2,3.6,4,3.5s1.6,2.3,1.6,3.5c-0.1,1.2-0.1,2.6,1.2,1.4s1.9-3.7,1.6-4.9c-0.3-1.2,1.2-5.5,1.8-5.9
		c0.6-0.4,3.8-3.1,4.1-4.5c0.3-1.4,3.8-13.1,3.3-16c0,0,2.2-1.2,2.2-1.6s1.2-4.4,1-5.9c-0.3-1.5-0.1-2.2,0-2.9s1.6-1.5,0.9-3
		L34.4,3.3z"/>
	<g>
		<path class="st0" d="M30,22.6C30,22.6,30,22.6,30,22.6C30,22.7,30,22.7,30,22.6z"/>
		<path class="st0" d="M30,22.6C30,22.6,30,22.6,30,22.6C30.1,22.6,30,22.6,30,22.6z"/>
		<polygon class="st121" points="30,22.6 30,22.6 30,22.6 		"/>
		<g>
			<path class="st122" d="M29.2,17.4c-0.8-1.6-2.5-2.7-4.4-2.7v0c0,0,0,0,0,0c0,0,0,0,0,0v0c-1.9,0-3.6,1.1-4.4,2.7
				c-0.6,1.1-0.7,2.5-0.2,3.7c0.9,2.4,2.9,4.4,4.6,6.2v0c0,0,0,0,0,0c0,0,0,0,0,0v0c1.7-1.8,3.7-3.8,4.6-6.2
				C29.9,19.9,29.8,18.6,29.2,17.4z"/>
			<path class="st1" d="M24.8,16.7c-1.6,0-3,1.3-3,2.9c0,1.6,1.3,3,3,3c1.6,0,3-1.4,3-3C27.8,18,26.5,16.7,24.8,16.7z"/>
		</g>
	</g>
</g>
</svg>
