<?xml version="1.0" encoding="utf-8"?>
<!-- Generator: Adobe Illustrator 23.0.1, SVG Export Plug-In . SVG Version: 6.00 Build 0)  -->
<svg version="1.1" xmlns="http://www.w3.org/2000/svg" xmlns:xlink="http://www.w3.org/1999/xlink" x="0px" y="0px"
	 viewBox="0 0 50 50" style="enable-background:new 0 0 50 50;" xml:space="preserve">
<style type="text/css">
	.st0{fill:#6a6cf6;}
	.st1{fill:#FFFFFF;}
	.st2{fill:#AF5D71;}
	.st3{fill:none;stroke:#151A3B;stroke-width:3.5034;stroke-miterlimit:10;}
	.st4{fill:#CC923E;}
	.st5{fill:#FFFFFF;stroke:#151A3B;stroke-width:3.5034;stroke-miterlimit:10;}
	.st6{fill:#C98A89;}
	.st7{fill:none;stroke:#151A3B;stroke-width:3.5034;stroke-linecap:round;stroke-miterlimit:10;}
	.st8{fill:none;stroke:#151A3B;stroke-width:3.5034;stroke-linecap:round;stroke-miterlimit:10;stroke-dasharray:11.6654,11.6654;}
	.st9{fill:none;}
	.st10{fill:#151A3B;}
	.st11{opacity:0.8;}
	.st12{fill:#151A3B;stroke:#121A3A;stroke-width:0.4379;stroke-miterlimit:10;}
	.st13{fill:#E7E9EA;}
	.st14{fill:#C2401F;}
	.st15{fill:#AF3C23;}
	.st16{fill-rule:evenodd;clip-rule:evenodd;fill:#BBC0C5;}
	.st17{fill-rule:evenodd;clip-rule:evenodd;fill:#FFFFFF;}
	.st18{fill:#060001;}
	.st19{fill-rule:evenodd;clip-rule:evenodd;fill:#060001;}
	.st20{fill-rule:evenodd;clip-rule:evenodd;fill:#F5F1C9;}
	.st21{fill-rule:evenodd;clip-rule:evenodd;fill:#313333;}
	.st22{fill:#9CA5A4;}
	.st23{fill-rule:evenodd;clip-rule:evenodd;fill:#D7DADD;}
	.st24{fill-rule:evenodd;clip-rule:evenodd;fill:#9CA5A4;}
	.st25{fill-rule:evenodd;clip-rule:evenodd;fill:#C8CBCE;stroke:#3C3A39;stroke-width:2;stroke-miterlimit:10;}
	.st26{fill:#ECEEF4;stroke:#585757;stroke-width:3;stroke-miterlimit:10;}
	.st27{fill-rule:evenodd;clip-rule:evenodd;fill:#DA4A46;}
	.st28{fill-rule:evenodd;clip-rule:evenodd;fill:#DEB829;}
	.st29{fill-rule:evenodd;clip-rule:evenodd;fill:#9EC768;}
	.st30{fill-rule:evenodd;clip-rule:evenodd;fill:#74B86E;}
	.st31{fill-rule:evenodd;clip-rule:evenodd;fill:#62B05A;}
	.st32{fill:#707070;}
	.st33{fill:#246EA1;}
	.st34{fill:#123651;}
	.st35{fill:#EA6D5D;}
	.st36{fill:#FBDFC1;}
	.st37{fill:#EBEAEA;}
	.st38{opacity:0.62;fill:url(#SVGID_1_);}
	.st39{opacity:0.62;fill:url(#SVGID_2_);}
	.st40{opacity:0.62;fill:url(#SVGID_3_);}
	.st41{fill:url(#SVGID_4_);}
	.st42{fill:url(#SVGID_5_);}
	.st43{opacity:0.62;fill:url(#SVGID_6_);}
	.st44{fill:url(#SVGID_7_);}
	.st45{fill:#D7D8DC;}
	.st46{fill:#C6C6C5;}
	.st47{fill:#AEADB3;}
	.st48{fill:url(#SVGID_8_);}
	.st49{fill:url(#SVGID_9_);}
	.st50{fill:url(#SVGID_10_);}
	.st51{fill:url(#SVGID_11_);}
	.st52{fill:#E08658;}
	.st53{fill:#D17847;}
	.st54{fill:#EAE081;}
	.st55{fill:#57AADC;}
	.st56{clip-path:url(#SVGID_13_);}
	.st57{clip-path:url(#SVGID_15_);}
	.st58{clip-path:url(#SVGID_17_);}
	.st59{clip-path:url(#SVGID_19_);}
	.st60{opacity:0.82;}
	.st61{clip-path:url(#SVGID_21_);fill:#00B4E4;}
	.st62{clip-path:url(#SVGID_21_);fill:#00B8E3;}
	.st63{clip-path:url(#SVGID_21_);fill:#00D0E3;}
	.st64{clip-path:url(#SVGID_21_);fill:#00E4E2;}
	.st65{fill:#C6C6C6;}
	.st66{fill:#515151;}
	.st67{fill:#FBDFC1;stroke:#EBC7A5;stroke-width:1.141;stroke-linecap:round;stroke-linejoin:round;stroke-miterlimit:10;}
	.st68{fill:#F7F7F7;}
	.st69{fill:#B2B2B2;}
	.st70{opacity:0.62;fill-rule:evenodd;clip-rule:evenodd;fill:url(#SVGID_22_);}
	.st71{opacity:0.62;fill-rule:evenodd;clip-rule:evenodd;fill:url(#SVGID_23_);}
	.st72{opacity:0.62;fill-rule:evenodd;clip-rule:evenodd;fill:url(#SVGID_24_);}
	.st73{opacity:0.62;fill-rule:evenodd;clip-rule:evenodd;fill:url(#SVGID_25_);}
	.st74{fill:url(#SVGID_26_);}
	.st75{fill:#1874BA;stroke:#1C6EAE;stroke-width:1.1732;stroke-linecap:round;stroke-linejoin:round;stroke-miterlimit:10;}
	.st76{fill:#EBC7A5;}
	.st77{fill:#D1D1D1;}
	.st78{fill:#1A567A;}
	.st79{fill:#EFEFEF;}
	.st80{fill-rule:evenodd;clip-rule:evenodd;fill:#1A567A;}
	.st81{fill-rule:evenodd;clip-rule:evenodd;fill:#EFEFEF;}
	.st82{fill-rule:evenodd;clip-rule:evenodd;fill:#347FA5;}
	.st83{fill:#FBDFC1;stroke:#EBC7A5;stroke-width:1.1732;stroke-miterlimit:10;}
	.st84{fill:#E2E2E2;}
	.st85{fill:#FBDFC1;stroke:#EBC7A5;stroke-width:1.1732;stroke-linecap:round;stroke-linejoin:round;stroke-miterlimit:10;}
	.st86{fill:#E25959;}
	.st87{fill:#E89791;}
	.st88{opacity:0.62;fill-rule:evenodd;clip-rule:evenodd;fill:url(#SVGID_27_);}
	.st89{opacity:0.62;fill-rule:evenodd;clip-rule:evenodd;fill:url(#SVGID_28_);}
	.st90{opacity:0.62;fill-rule:evenodd;clip-rule:evenodd;fill:url(#SVGID_29_);}
	.st91{opacity:0.52;}
	.st92{fill:#F7F7F7;stroke:#B2B2B2;stroke-width:1.141;stroke-linecap:round;stroke-linejoin:round;stroke-miterlimit:10;}
	.st93{fill:#7A7A7A;}
	.st94{fill:#FFE292;}
	.st95{fill:#A5A5A5;}
	.st96{fill:#999999;}
	.st97{fill:#E5E5E5;}
	.st98{fill:none;stroke:url(#SVGID_30_);stroke-width:3;stroke-linecap:round;stroke-linejoin:round;stroke-miterlimit:10;}
	.st99{fill:none;stroke:url(#SVGID_31_);stroke-width:3;stroke-linecap:round;stroke-linejoin:round;stroke-miterlimit:10;}
	.st100{fill:none;stroke:url(#SVGID_32_);stroke-width:3;stroke-linecap:round;stroke-linejoin:round;stroke-miterlimit:10;}
	.st101{fill:none;stroke:url(#SVGID_33_);stroke-width:3;stroke-linecap:round;stroke-linejoin:round;stroke-miterlimit:10;}
	.st102{opacity:0.62;}
	.st103{fill:url(#SVGID_34_);}
	.st104{fill:url(#SVGID_35_);}
	.st105{fill:url(#SVGID_36_);}
	.st106{fill:url(#SVGID_37_);}
	.st107{fill:url(#SVGID_38_);}
	.st108{fill:url(#SVGID_39_);}
	.st109{fill:url(#SVGID_40_);}
	.st110{fill:url(#SVGID_41_);}
	.st111{fill:url(#SVGID_42_);}
	.st112{fill:url(#SVGID_43_);}
	.st113{fill:url(#SVGID_44_);}
	.st114{fill:url(#SVGID_45_);}
	.st115{fill:url(#SVGID_46_);}
	.st116{fill:url(#SVGID_47_);}
	.st117{fill:url(#SVGID_48_);}
	.st118{fill:url(#SVGID_49_);}
	.st119{fill:url(#SVGID_50_);}
	.st120{fill:url(#SVGID_51_);}
	.st121{fill:#C7C7C7;}
	.st122{fill:#915EAB;stroke:#FFFFFF;stroke-width:0.75;stroke-linecap:round;stroke-linejoin:round;stroke-miterlimit:10;}
	.st123{fill:#FFFFFF;stroke:#FFFFFF;stroke-width:2.2328;stroke-miterlimit:10;}
</style>
<g id="圖層_1">
</g>
<g id="bg">
</g>
<g id="圖層_2">
	<g>
		<g>
			<g>
				<path class="st0" d="M42.2,32.2c0.6,0,1.2-0.1,1.7-0.3c3.9-1.4,5.9-7.3,6-7.6c0.1-0.3,0.1-0.6-0.1-0.8c-0.2-0.2-0.4-0.4-0.7-0.4
					c-3-0.3-5.5,0.2-7.4,1.5c0.1-1,0.2-1.9,0.3-2.8c0,0,0,0,0,0c1.4,0,2.5-0.4,3.5-1.3c2.8-2.6,2.6-8.2,2.6-8.4
					c0-0.3-0.2-0.6-0.4-0.8c-0.3-0.2-0.6-0.2-0.9-0.1c-2.7,1-4.3,2.3-5.3,3.6c-0.1-0.7-0.3-1.2-0.4-1.6c0.8-1.1,1.1-2.3,0.8-3.6
					c-0.7-3.6-5.4-6.1-5.6-6.2c-0.3-0.1-0.6-0.1-0.9,0C35.2,3.4,35,3.6,35,3.9c-0.7,2.9-0.5,5.3,0.7,7.1c1.2,1.8,2.9,2.6,3.7,2.8
					c0.2,1,0.6,2.9,0.7,5.1c-2.1-2.5-5.4-4-5.5-4c-0.3-0.1-0.5,0-0.8,0.1c-0.2,0.1-0.4,0.4-0.5,0.7c-0.7,3.5-0.3,6.3,1.2,8.5
					c1.5,2.1,3.6,2.9,4.5,3.1c-0.1,0.2-1.2,3.3-1.9,4.4c-0.8-3.9-4.9-7.4-5.1-7.5c-0.2-0.2-0.5-0.3-0.8-0.2
					c-0.3,0.1-0.5,0.3-0.7,0.5c-1.5,3.3-1.8,6.3-0.9,8.8c0.7,1.9,2,3.1,3,3.8c-1.3,1.1-2.8,2.1-4.4,3c0.3-0.7,0.5-1.4,0.5-2.2
					c0-3.1-3-5.4-3.1-5.5c-0.4-0.3-0.8-0.3-1.2,0c-0.1,0.1-3.1,2.4-3.1,5.5c0,0.8,0.2,1.5,0.5,2.2c-1.6-0.9-3.1-1.9-4.4-3
					c1-0.7,2.2-1.9,3-3.8c1-2.5,0.7-5.5-0.9-8.8C19.3,24.2,19,24,18.7,24c-0.3-0.1-0.6,0-0.8,0.2c-0.2,0.2-4.3,3.6-5.1,7.5
					c-0.6-1.1-1.8-4.1-1.9-4.4c0.9-0.2,3-1,4.5-3.1c1.5-2.1,1.9-5,1.2-8.5c-0.1-0.3-0.2-0.5-0.5-0.7C16,15,15.7,15,15.4,15
					c0,0-3.3,1.5-5.5,4c0.1-2.3,0.5-4.1,0.7-5.1c0.8-0.2,2.5-1,3.7-2.8c1.2-1.9,1.4-4.3,0.7-7.1c-0.1-0.3-0.3-0.5-0.5-0.7
					c-0.3-0.1-0.6-0.1-0.9,0C13.4,3.4,8.7,5.9,8,9.5c-0.2,1.3,0,2.5,0.8,3.6c-0.1,0.4-0.2,0.9-0.4,1.6c-1-1.3-2.6-2.7-5.3-3.6
					c-0.3-0.1-0.6-0.1-0.9,0.1c-0.3,0.2-0.4,0.5-0.4,0.8c0,0.2-0.3,5.8,2.6,8.4c1,0.9,2.1,1.3,3.5,1.3c0,0,0,0,0,0
					c0,0.9,0.1,1.8,0.3,2.8c-1.9-1.2-4.3-1.7-7.4-1.5c-0.3,0-0.6,0.2-0.7,0.4C0,23.7,0,24,0.1,24.3c0.1,0.3,2.1,6.2,6,7.6
					c0.6,0.2,1.2,0.3,1.7,0.3c0.9,0,1.7-0.2,2.6-0.7c0.3,0.5,1.6,2.7,2,3.3c-2.3-0.3-5.2,0.1-8.8,2.3c-0.3,0.2-0.4,0.4-0.5,0.7
					c0,0.3,0.1,0.6,0.3,0.8c0.2,0.2,5,5.1,9.8,5.1c0.2,0,0.5,0,0.7,0c1.9-0.2,3.5-1.2,4.7-3.1c1.1,0.8,2.4,1.4,3.7,2.1
					c-1.1,0.4-2.3,0.7-3.5,1c-0.5,0.1-0.8,0.7-0.7,1.2c0.1,0.4,0.5,0.7,0.9,0.7c0.1,0,0.2,0,0.2,0c2-0.5,3.9-1.1,5.6-1.8
					c1.8,0.7,3.6,1.3,5.6,1.8c0.1,0,0.2,0,0.2,0c0.4,0,0.8-0.3,0.9-0.7c0.1-0.5-0.2-1.1-0.7-1.2c-1.2-0.3-2.4-0.6-3.5-1
					c1.3-0.6,2.5-1.3,3.7-2.1c1.2,1.8,2.8,2.9,4.7,3.1c0.2,0,0.5,0,0.7,0c4.8,0,9.6-4.9,9.8-5.1c0.2-0.2,0.3-0.5,0.3-0.8
					c0-0.3-0.2-0.6-0.5-0.7c-3.6-2.2-6.5-2.6-8.8-2.3c0.4-0.5,1.7-2.7,2-3.3C40.4,31.9,41.3,32.2,42.2,32.2z M46.1,13.4
					c-0.1,1.7-0.6,4.2-1.9,5.5c-0.6,0.5-1.3,0.8-2.1,0.8C41.9,18.4,42,15.4,46.1,13.4z M42,26.8c1.4-1.2,3.2-1.9,5.6-1.9
					c0,0,0,0,0,0c-0.8,1.8-2.4,4.4-4.4,5.2c-0.9,0.3-1.8,0.2-2.8-0.3C40.5,29.6,41.1,27.5,42,26.8z M39.6,11.9
					C39.6,11.9,39.6,11.9,39.6,11.9c-0.6-0.2-1.6-0.8-2.3-1.9c-0.7-1.1-0.9-2.6-0.7-4.3C38,6.7,39.7,8.2,40,9.8
					C40.2,10.5,40,11.2,39.6,11.9z M7.9,19.7c-0.9,0-1.6-0.3-2.1-0.8c-1.3-1.2-1.8-3.7-1.9-5.5C8,15.4,8.1,18.4,7.9,19.7z M6.7,30
					c-2-0.7-3.5-3.4-4.4-5.2c0,0,0,0,0,0c2.4,0,4.3,0.6,5.6,1.9c0.6,0.6,1,1.3,1.2,1.9c0,0.1,0.3,0.9,0.3,1.1
					C8.6,30.3,7.6,30.3,6.7,30z M10,9.8c0.3-1.6,2.1-3.2,3.4-4.1c0.2,1.7,0,3.2-0.7,4.3c-0.7,1.1-1.7,1.6-2.3,1.9c0,0,0,0,0,0
					C10,11.2,9.8,10.5,10,9.8z M10.2,22.5c0.4-2.2,3-4,4.7-5c0.2,2.3-0.1,4.2-1.1,5.6c-1,1.4-2.3,2-3.1,2.3
					C10.4,24.8,10,23.6,10.2,22.5z M13.7,41.7c-3,0.3-6.3-2.2-7.9-3.6c2.8-1.5,5.4-1.8,7.6-1.1c1.8,0.5,3.4,2.4,3.6,2.7
					C16,40.9,15,41.6,13.7,41.7z M15.9,35.8c0,0-1.2-1.2-1.3-2.7c-0.1-2.5,2.2-5.1,3.6-6.5c0.9,2.3,1,4.3,0.3,6
					C17.8,34.3,16.6,35.3,15.9,35.8z M25,41.4c-0.7-0.7-1.8-2-1.8-3.4c0-1.4,1.1-2.7,1.8-3.4c0.7,0.7,1.8,2,1.8,3.4
					C26.8,39.4,25.7,40.7,25,41.4z M31.5,32.6c-0.6-1.7-0.5-3.7,0.3-6c1.4,1.3,3.6,4,3.6,6.5c0,0.9-0.4,1.7-1,2.5
					c0,0-0.1,0.1-0.1,0.1c0,0-0.1,0.1-0.1,0.1C33.4,35.3,32.2,34.3,31.5,32.6z M44.2,38.1c-1.8,1.6-5.2,3.9-7.9,3.6
					c-1.3-0.1-2.3-0.8-3.2-2c0.2-0.3,2-2.2,3.6-2.7C38.8,36.2,41.4,36.6,44.2,38.1z M36.2,23.1c-1-1.4-1.4-3.3-1.1-5.6
					c1.7,1,4.2,2.9,4.7,5c0.2,0.9-0.2,2.3-0.6,2.8C38.5,25.1,37.2,24.5,36.2,23.1z"/>
			</g>
		</g>
	</g>
</g>
</svg>
